<svg xmlns="http://www.w3.org/2000/svg" viewBox="8.149999618530273 13.800000190734863 127.49999237060547 43" width="2.3em" data-asc="0.984"><g fill="#e01b24"><g fill="#e01b24" transform="translate(0, 0)"><path d="M8.15 56.80L8.15 13.80L22 13.80L22 16.15L11.45 16.15L11.45 54.45L22 54.45L22 56.80L8.15 56.80ZM32.25 46.80L32.25 42.85L47.30 32.70L47.30 32.50L32.25 22.35L32.25 18.40L50.90 31.05L50.90 34.15L32.25 46.80ZM71.90 49.80Q70.25 49.80 69.05 48.63Q67.85 47.45 67.85 45.60Q67.85 43.70 69.05 42.53Q70.25 41.35 71.90 41.35Q73.60 41.35 74.78 42.53Q75.95 43.70 75.95 45.60Q75.95 47.45 74.78 48.63Q73.60 49.80 71.90 49.80ZM111.55 46.80L92.90 34.15L92.90 31.05L111.55 18.40L111.55 22.35L96.50 32.50L96.50 32.70L111.55 42.85L111.55 46.80ZM121.80 56.80L121.80 54.45L132.35 54.45L132.35 16.15L121.80 16.15L121.80 13.80L135.65 13.80L135.65 56.80L121.80 56.80Z"/></g></g></svg>