<svg xmlns="http://www.w3.org/2000/svg" viewBox="8.149999618530273 13.800000190734863 127.49999237060547 43" width="2.3em" data-asc="0.984"><g fill="#57e389"><g fill="#57e389" transform="translate(0, 0)"><path d="M8.15 56.80L8.15 13.80L22 13.80L22 16.15L11.45 16.15L11.45 54.45L22 54.45L22 56.80L8.15 56.80ZM41.90 27.75Q40.25 27.75 38.83 26.98Q37.40 26.20 36.52 24.75Q35.65 23.30 35.65 21.40Q35.65 19.45 36.52 18Q37.40 16.55 38.83 15.75Q40.25 14.95 41.90 14.95Q43.60 14.95 45.02 15.75Q46.45 16.55 47.33 18Q48.20 19.45 48.20 21.40Q48.20 23.30 47.33 24.75Q46.45 26.20 45.02 26.98Q43.60 27.75 41.90 27.75M41.90 25.45Q43.60 25.45 44.65 24.30Q45.70 23.15 45.70 21.40Q45.70 19.55 44.65 18.40Q43.60 17.25 41.90 17.25Q40.25 17.25 39.20 18.40Q38.15 19.55 38.15 21.40Q38.15 23.15 39.20 24.30Q40.25 25.45 41.90 25.45ZM71.90 49.80Q68.70 49.80 65.97 48.30Q63.25 46.80 61.57 43.95Q59.90 41.10 59.90 37.10Q59.90 33 61.57 30.15Q63.25 27.30 65.97 25.80Q68.70 24.30 71.90 24.30Q75.10 24.30 77.83 25.80Q80.55 27.30 82.22 30.15Q83.90 33 83.90 37.10Q83.90 41.10 82.22 43.95Q80.55 46.80 77.83 48.30Q75.10 49.80 71.90 49.80M71.90 46.40Q74.25 46.40 76 45.23Q77.75 44.05 78.70 41.95Q79.65 39.85 79.65 37.10Q79.65 34.30 78.70 32.17Q77.75 30.05 76 28.88Q74.25 27.70 71.90 27.70Q69.55 27.70 67.83 28.88Q66.10 30.05 65.13 32.17Q64.15 34.30 64.15 37.10Q64.15 39.85 65.13 41.95Q66.10 44.05 67.83 45.23Q69.55 46.40 71.90 46.40ZM101.90 27.75Q100.25 27.75 98.83 26.98Q97.40 26.20 96.53 24.75Q95.65 23.30 95.65 21.40Q95.65 19.45 96.53 18Q97.40 16.55 98.83 15.75Q100.25 14.95 101.90 14.95Q103.60 14.95 105.03 15.75Q106.45 16.55 107.33 18Q108.20 19.45 108.20 21.40Q108.20 23.30 107.33 24.75Q106.45 26.20 105.03 26.98Q103.60 27.75 101.90 27.75M101.90 25.45Q103.60 25.45 104.65 24.30Q105.70 23.15 105.70 21.40Q105.70 19.55 104.65 18.40Q103.60 17.25 101.90 17.25Q100.25 17.25 99.20 18.40Q98.15 19.55 98.15 21.40Q98.15 23.15 99.20 24.30Q100.25 25.45 101.90 25.45ZM121.80 56.80L121.80 54.45L132.35 54.45L132.35 16.15L121.80 16.15L121.80 13.80L135.65 13.80L135.65 56.80L121.80 56.80Z"/></g></g></svg>