<svg xmlns="http://www.w3.org/2000/svg" viewBox="8.149999618530273 13.800000190734863 127.49999237060547 43" width="2.3em" data-asc="0.984"><g fill="#62a0ea"><g fill="#62a0ea" transform="translate(0, 0)"><path d="M8.15 56.80L8.15 13.80L22 13.80L22 16.15L11.45 16.15L11.45 54.45L22 54.45L22 56.80L8.15 56.80ZM39.80 49.20L39.80 19.90L29 19.90L29 16.40L54.80 16.40L54.80 19.90L44 19.90L44 49.20L39.80 49.20ZM71.90 49.80Q68.70 49.80 65.97 48.30Q63.25 46.80 61.57 43.95Q59.90 41.10 59.90 37.10Q59.90 33 61.57 30.15Q63.25 27.30 65.97 25.80Q68.70 24.30 71.90 24.30Q75.10 24.30 77.83 25.80Q80.55 27.30 82.22 30.15Q83.90 33 83.90 37.10Q83.90 41.10 82.22 43.95Q80.55 46.80 77.83 48.30Q75.10 49.80 71.90 49.80M71.90 46.40Q74.25 46.40 76 45.23Q77.75 44.05 78.70 41.95Q79.65 39.85 79.65 37.10Q79.65 34.30 78.70 32.17Q77.75 30.05 76 28.88Q74.25 27.70 71.90 27.70Q69.55 27.70 67.83 28.88Q66.10 30.05 65.13 32.17Q64.15 34.30 64.15 37.10Q64.15 39.85 65.13 41.95Q66.10 44.05 67.83 45.23Q69.55 46.40 71.90 46.40ZM99.80 49.20L99.80 19.90L89 19.90L89 16.40L114.80 16.40L114.80 19.90L104 19.90L104 49.20L99.80 49.20ZM121.80 56.80L121.80 54.45L132.35 54.45L132.35 16.15L121.80 16.15L121.80 13.80L135.65 13.80L135.65 56.80L121.80 56.80Z"/></g></g></svg>